# xmcd CD database file
#
# Track frame offsets:
#	150
#	19785
#	36585
#	58015
#	74360
#	90210
#	108918
#	125653
#	143263
#	156225
#	174040
#	190390
#	206848
#	225638
#	241048
#	257838
#	275160
#
# Disc length: 3857 seconds
#
# Revision: 2
# Processed by: cddbd v1.4PL0 Copyright (c) Steve Scherf et al.
# Submitted via: CDex 1.50Beta7
#
DISCID=ea0f0f11
DTITLE=Miguel Bose - El Disco De Oro de Miguel Bose
DYEAR=1986
DGENRE=Latin
TTITLE0=Amante Bandido
TTITLE1=La Chula
TTITLE2=Amiga
TTITLE3=Linda
TTITLE4=Te Amare
TTITLE5=Morir De Amor
TTITLE6=Don Diablo
TTITLE7=Marchate Ya
TTITLE8=Te Dire
TTITLE9=Creo En Ti
TTITLE10=Deja Que
TTITLE11=Super Superman
TTITLE12=Horizonte De Las Estrellas
TTITLE13=23 Horas Al Dia
TTITLE14=Mas Alla
TTITLE15=Mi Libertad
TTITLE16=Voy A Ganar
EXTD=YEAR: 1986
EXTT0=
EXTT1=
EXTT2=
EXTT3=
EXTT4=
EXTT5=
EXTT6=
EXTT7=
EXTT8=
EXTT9=
EXTT10=
EXTT11=
EXTT12=
EXTT13=
EXTT14=
EXTT15=
EXTT16=
PLAYORDER=
